# xmcd
#
# Track frame offsets:
#	150
#	13237
#	29530
#	44653
#	59389
#	75870
#	87147
#	102660
#	115665
#	131453
#	149334
#	162144
#	189175
#
# Disc length: 2817 seconds
#
# Revision: 0
# Processed by: cddbd v1.5.1PL0 Copyright (c) Steve Scherf et al.
# Submitted via: dBpowerAMP V4.0
#
DISCID=a50aff0d
DTITLE=Ashley Robertson - Ashley Robertson
DYEAR=2003
DGENRE=Country
TTITLE0=Living In Misery
TTITLE1=Cold Enough To Burn
TTITLE2=Nothing In This World
TTITLE3=I'm Gonna Get There
TTITLE4=But He
TTITLE5=Good Chance, Bad Choice
TTITLE6=You're My Every Reason
TTITLE7=When You Do That
TTITLE8=Little League Tryouts
TTITLE9=Convince Me
TTITLE10=I Will Never Tell
TTITLE11=Amazing Grace
TTITLE12=DATA
EXTD=
EXTT0=
EXTT1=
EXTT2=
EXTT3=
EXTT4=
EXTT5=
EXTT6=
EXTT7=
EXTT8=
EXTT9=
EXTT10=
EXTT11=
EXTT12=
PLAYORDER=
